# File created by Blade
# Date/Time:  Wed Apr 08 17:31:39 2015
# Frame Rate: 120.000 fps
#------------------------------------------------------
:FULLY-SPECIFIED
:DEGREES
1066
root 1.966844 36.345805 0.001172 -512.153944 -83.181188 539.235500
Spine -27.382453 0.002272 -4.188190
Head 9.468335 13.056401 3.488861
LeftShoulder -6.058480 11.621252 30.967302
LeftArm 12.862332 -36.706057 -33.190560
LeftForeArm 19.092771 -0.000000 1.569848
LeftHand -9.398753 -0.000000 -13.248245
LeftHandThumb1 -26.253704 0.000000 33.147579
RightShoulder -22.534922 -40.479963 -16.273369
RightArm 48.472670 46.287475 47.022112
RightForeArm -2.178776 -0.000000 -1.814055
RightHand -0.952285 -0.000000 16.128735
RightHandThumb1 -24.326973 -0.000000 -32.862282
LeftUpLeg -27.865336 15.405192 0.291833
LeftLeg 11.486473 -0.000000 -0.000000
LeftFoot -9.309115 10.201179 -15.195616
LeftToeBase 7.367982 -0.000000 -0.000000
RightUpLeg -28.427290 -7.782045 -4.520190
RightLeg 9.816389 -0.000000 -0.000000
RightFoot -10.070760 -7.559085 21.796664
RightToeBase 13.807792 -0.000000 -0.000000
1067
root 1.964854 36.347440 0.007485 -511.999637 -83.176167 539.126486
Spine -27.429640 -0.010243 -4.174012
Head 9.481311 13.083830 3.449508
LeftShoulder -5.985613 11.537385 31.007688
LeftArm 12.766121 -36.707517 -33.216153
LeftForeArm 19.067785 -0.000000 1.604654
LeftHand -9.391318 -0.000000 -13.261966
LeftHandThumb1 -26.253704 0.000000 33.147579
RightShoulder -22.505897 -40.440465 -16.328074
RightArm 48.455914 46.240699 47.020296
RightForeArm -2.126807 0.000000 -1.803239
RightHand -0.911107 -0.000000 16.109597
RightHandThumb1 -24.326973 -0.000000 -32.862282
LeftUpLeg -27.905796 15.379368 0.263755
LeftLeg 11.480760 -0.000000 -0.000000
LeftFoot -9.302266 10.217897 -15.211052
LeftToeBase 7.347463 -0.000000 -0.000000
RightUpLeg -28.466306 -7.790090 -4.536680
RightLeg 9.803703 -0.000000 -0.000000
RightFoot -10.056772 -7.569136 21.794480
RightToeBase 13.835292 -0.000000 -0.000000
1068
root 1.963186 36.347669 0.015648 -511.948542 -83.131451 539.070299
Spine -27.411668 0.006134 -4.164831
Head 9.481071 13.134077 3.409164
LeftShoulder -5.986655 11.517662 31.007307
LeftArm 12.827598 -36.729788 -33.275512
LeftForeArm 19.068394 -0.000000 1.558678
LeftHand -9.489094 -0.000000 -13.232999
LeftHandThumb1 -26.253704 0.000000 33.147579
RightShoulder -22.473200 -40.419668 -16.366206
RightArm 48.504143 46.240447 47.066589
RightForeArm -2.082054 -0.000000 -1.804664
RightHand -0.910385 -0.000000 16.044135
RightHandThumb1 -24.326973 -0.000000 -32.862282
LeftUpLeg -27.898068 15.415887 0.221651
LeftLeg 11.483381 -0.000000 -0.000000
LeftFoot -9.308825 10.230650 -15.181600
LeftToeBase 7.355626 -0.000000 -0.000000
RightUpLeg -28.477254 -7.792864 -4.560644
RightLeg 9.815672 -0.000000 -0.000000
RightFoot -10.038166 -7.548991 21.787553
RightToeBase 13.840681 -0.000000 -0.000000
1069
root 1.959428 36.348032 0.022428 -511.839252 -83.115900 538.956684
Spine -27.400228 0.007162 -4.161604
Head 9.475848 13.162684 3.377300
LeftShoulder -5.948639 11.499729 31.024715
LeftArm 12.831969 -36.714445 -33.312526
LeftForeArm 19.104783 -0.000000 1.568951
LeftHand -9.462195 -0.000000 -13.270448
LeftHandThumb1 -26.253704 0.000000 33.147579
RightShoulder -22.455612 -40.402856 -16.387059
RightArm 48.540145 46.250739 47.111388
RightForeArm -2.061391 -0.000000 -1.799731
RightHand -0.889286 -0.000000 16.029115
RightHandThumb1 -24.326973 -0.000000 -32.862282
LeftUpLeg -27.884140 15.406550 0.202418
LeftLeg 11.482217 -0.000000 -0.000000
LeftFoot -9.317098 10.232412 -15.192036
LeftToeBase 7.358689 -0.000000 -0.000000
RightUpLeg -28.474613 -7.847805 -4.565415
RightLeg 9.816469 -0.000000 -0.000000
RightFoot -10.017742 -7.501634 21.776966
RightToeBase 13.846434 -0.000000 -0.000000
1070
root 1.956454 36.348042 0.031293 -511.726551 -83.081829 538.842085
Spine -27.392156 0.022049 -4.152450
Head 9.476134 13.199881 3.335592
LeftShoulder -5.913134 11.450306 31.031412
LeftArm 12.803035 -36.671876 -33.325901
LeftForeArm 19.152861 0.000000 1.580636
LeftHand -9.479961 -0.000000 -13.320190
LeftHandThumb1 -26.253704 0.000000 33.147579
RightShoulder -22.418092 -40.360516 -16.437268
RightArm 48.530997 46.235262 47.108412
RightForeArm -2.030137 -0.000000 -1.788376
RightHand -0.904653 -0.000000 16.015977
RightHandThumb1 -24.326973 -0.000000 -32.862282
LeftUpLeg -27.871587 15.415330 0.166776
LeftLeg 11.477621 -0.000000 -0.000000
LeftFoot -9.319684 10.231247 -15.195072
LeftToeBase 7.314961 -0.000000 -0.000000
RightUpLeg -28.476932 -7.872087 -4.590923
RightLeg 9.815130 -0.000000 -0.000000
RightFoot -9.997094 -7.459462 21.769103
RightToeBase 13.838595 -0.000000 -0.000000
1071
root 1.952769 36.347875 0.039775 -511.607360 -83.069641 538.723001
Spine -27.384250 0.015876 -4.124807
Head 9.457061 13.249685 3.284859
LeftShoulder -5.890985 11.415969 31.030144
LeftArm 12.785834 -36.683326 -33.370559
LeftForeArm 19.259933 -0.000000 1.615699
LeftHand -9.499505 -0.000000 -13.264658
LeftHandThumb1 -26.253704 0.000000 33.147579
RightShoulder -22.392634 -40.353360 -16.476101
RightArm 48.576902 46.252150 47.143436
RightForeArm -2.035815 -0.000000 -1.788226
RightHand -0.894573 -0.000000 16.018970
RightHandThumb1 -24.326973 -0.000000 -32.862282
LeftUpLeg -27.867748 15.416552 0.135972
LeftLeg 11.479995 -0.000000 -0.000000
LeftFoot -9.331106 10.229007 -15.191186
LeftToeBase 7.351244 -0.000000 -0.000000
RightUpLeg -28.482925 -7.940564 -4.594332
RightLeg 9.823019 -0.000000 -0.000000
RightFoot -9.973112 -7.394269 21.755929
RightToeBase 13.858009 -0.000000 -0.000000
1072
root 1.949659 36.348325 0.049610 -511.453869 -83.049129 538.552210
Spine -27.352421 0.004582 -4.124543
Head 9.438779 13.312910 3.286197
LeftShoulder -5.903783 11.242985 31.068852
LeftArm 12.741536 -36.478118 -33.383834
LeftForeArm 19.317689 -0.000000 1.612601
LeftHand -9.546142 -0.000000 -13.212283
LeftHandThumb1 -26.253704 0.000000 33.147579
RightShoulder -22.315895 -40.307748 -16.501725
RightArm 48.505097 46.279480 47.077882
RightForeArm -2.034486 -0.000000 -1.776468
RightHand -0.930351 -0.000000 16.086237
RightHandThumb1 -24.326973 -0.000000 -32.862282
LeftUpLeg -27.837386 15.401437 0.105776
LeftLeg 11.469241 -0.000000 -0.000000
LeftFoot -9.342093 10.244096 -15.197502
LeftToeBase 7.343376 -0.000000 -0.000000
RightUpLeg -28.474586 -8.002038 -4.611350
RightLeg 9.830087 -0.000000 -0.000000
RightFoot -9.949014 -7.346247 21.735136
RightToeBase 13.854927 -0.000000 -0.000000
1073
root 1.946830 36.347359 0.057526 -511.270696 -83.025698 538.361661
Spine -27.333723 0.007522 -4.116152
Head 9.418943 13.360555 3.234971
LeftShoulder -5.975156 11.390324 30.958995
LeftArm 13.011857 -36.490698 -33.410237
LeftForeArm 19.348279 0.000000 1.527184
LeftHand -9.575688 -0.000000 -13.263039
LeftHandThumb1 -26.253704 0.000000 33.147579
RightShoulder -22.278452 -40.295996 -16.558912
RightArm 48.521060 46.279205 47.112326
RightForeArm -2.022596 -0.000000 -1.755600
RightHand -0.971404 -0.000000 16.048166
RightHandThumb1 -24.326973 -0.000000 -32.862282
LeftUpLeg -27.823315 15.420282 0.059734
LeftLeg 11.462297 -0.000000 -0.000000
LeftFoot -9.342730 10.225008 -15.187684
LeftToeBase 7.374259 -0.000000 -0.000000
RightUpLeg -28.476858 -8.037645 -4.637751
RightLeg 9.841311 -0.000000 -0.000000
RightFoot -9.942860 -7.311267 21.727173
RightToeBase 13.835127 -0.000000 -0.000000
1074
root 1.945081 36.346996 0.066747 -511.069185 -83.006187 538.160606
Spine -27.312438 0.006863 -4.101694
Head 9.364149 13.424208 3.174227
LeftShoulder -6.052822 11.517641 30.853161
LeftArm 13.250695 -36.505866 -33.441294
LeftForeArm 19.308971 -0.000000 1.473239
LeftHand -9.532324 -0.000000 -13.312488
LeftHandThumb1 -26.253704 0.000000 33.147579
RightShoulder -22.275333 -40.291656 -16.586034
RightArm 48.578152 46.297463 47.155151
RightForeArm -2.042527 -0.000000 -1.744636
RightHand -0.952664 -0.000000 16.045075
RightHandThumb1 -24.326973 -0.000000 -32.862282
LeftUpLeg -27.812983 15.395692 0.028608
LeftLeg 11.454961 -0.000000 -0.000000
LeftFoot -9.356159 10.223180 -15.236256
LeftToeBase 7.346621 -0.000000 -0.000000
RightUpLeg -28.487778 -8.064542 -4.671945
RightLeg 9.855094 -0.000000 -0.000000
RightFoot -9.939976 -7.285333 21.719327
RightToeBase 13.842365 -0.000000 -0.000000
1075
root 1.942991 36.346821 0.076196 -510.924039 -82.998988 538.019021
Spine -27.295686 0.001632 -4.079045
Head 9.320924 13.485757 3.137366
LeftShoulder -6.058156 11.524272 30.830006
LeftArm 13.295960 -36.515915 -33.493388
LeftForeArm 19.271638 -0.000000 1.496925
LeftHand -9.571246 -0.000000 -13.302191
LeftHandThumb1 -26.253704 0.000000 33.147579
RightShoulder -22.251513 -40.276631 -16.618628
RightArm 48.588159 46.314887 47.166873
RightForeArm -2.029463 -0.000000 -1.730951
RightHand -0.967915 -0.000000 16.108715
RightHandThumb1 -24.326973 -0.000000 -32.862282
LeftUpLeg -27.813711 15.390510 -0.007917
LeftLeg 11.450669 -0.000000 -0.000000
LeftFoot -9.365858 10.232927 -15.210116
LeftToeBase 7.349806 -0.000000 -0.000000
RightUpLeg -28.499308 -8.116527 -4.683964
RightLeg 9.862524 -0.000000 -0.000000
RightFoot -9.922881 -7.250765 21.707617
RightToeBase 13.864701 -0.000000 -0.000000
1076
root 1.942194 36.346904 0.084048 -510.714878 -82.990609 537.816913
Spine -27.280578 -0.022109 -4.061657
Head 9.272201 13.562909 3.103204
LeftShoulder -6.097340 11.554374 30.794727
LeftArm 13.396568 -36.543138 -33.544234
LeftForeArm 19.236495 -0.000000 1.463015
LeftHand -9.508886 0.000000 -13.308745
LeftHandThumb1 -26.253704 0.000000 33.147579
RightShoulder -22.199148 -40.227374 -16.676784
RightArm 48.593184 46.325072 47.191600
RightForeArm -2.000142 0.000000 -1.725394
RightHand -0.991446 -0.000000 15.998086
RightHandThumb1 -24.326973 -0.000000 -32.862282
LeftUpLeg -27.820632 15.380770 -0.045706
LeftLeg 11.448613 -0.000000 -0.000000
LeftFoot -9.352369 10.223757 -15.213815
LeftToeBase 7.333395 -0.000000 -0.000000
RightUpLeg -28.510782 -8.126458 -4.719721
RightLeg 9.864691 -0.000000 -0.000000
RightFoot -9.927376 -7.256841 21.739690
RightToeBase 13.835120 -0.000000 -0.000000
1077
root 1.940646 36.347517 0.092886 -510.551423 -82.985840 537.657052
Spine -27.264303 -0.041367 -4.036319
Head 9.219788 13.626471 3.067311
LeftShoulder -6.013675 11.374742 30.861209
LeftArm 13.135523 -36.516375 -33.548165
LeftForeArm 19.328089 -0.000000 1.594974
LeftHand -9.458374 -0.000000 -13.344069
LeftHandThumb1 -26.253704 0.000000 33.147579
RightShoulder -22.165421 -40.212417 -16.715261
RightArm 48.623623 46.348102 47.224590
RightForeArm -1.975910 -0.000000 -1.725171
RightHand -0.977051 -0.000000 15.966692
RightHandThumb1 -24.326973 -0.000000 -32.862282
LeftUpLeg -27.817528 15.368552 -0.079775
LeftLeg 11.435254 -0.000000 -0.000000
LeftFoot -9.351202 10.233992 -15.192832
LeftToeBase 7.362623 -0.000000 -0.000000
RightUpLeg -28.506698 -8.123371 -4.757251
RightLeg 9.850508 -0.000000 -0.000000
RightFoot -9.924321 -7.286480 21.748860
RightToeBase 13.849043 -0.000000 -0.000000
